<?xml version="1.0" standalone="no"?><!DOCTYPE svg PUBLIC "-//W3C//DTD SVG 1.1//EN" "http://www.w3.org/Graphics/SVG/1.1/DTD/svg11.dtd"><svg t="1567748249667" class="icon" viewBox="0 0 1024 1024" version="1.1" xmlns="http://www.w3.org/2000/svg" p-id="2086" xmlns:xlink="http://www.w3.org/1999/xlink" width="200" height="200"><defs><style type="text/css"></style></defs><path d="M906.652 178.66c0-3.384-1.021-6.503-2.417-9.323-2.256-8.924-6.021-17.417-12.688-23.893L768.729 25.798c-6.344-6.101-14.883-14.542-31.384-14.542H284.551c-27.683 0-50.204 22.631-50.204 50.471v783.109c0 27.707 22.521 50.257 50.204 50.257h571.797c27.731 0 50.304-22.55 50.304-50.257v-663.65c0-0.43-0.212-0.832-0.212-1.262 0-0.457 0.212-0.806 0.212-1.264z m-62.668-20.961h-85.677V74.198l85.677 83.501z m12.365 695.442H284.551c-4.461 0-8.221-3.816-8.221-8.304V61.728c0-4.648 3.759-8.518 8.221-8.518l431.83-0.62v126.07c0 11.585 9.404 20.964 20.965 20.964h127.379v645.213c0 4.487-3.865 8.304-8.376 8.304z" fill="#21B3E5" p-id="2087"></path><path d="M738.528 682.216h-335.51c-11.609 0-21.014 9.379-21.014 20.989 0 11.583 9.405 20.962 21.014 20.962h335.511c11.554 0 20.959-9.379 20.959-20.962-0.001-11.61-9.406-20.989-20.96-20.989zM738.528 556.417h-335.51c-11.609 0-21.014 9.379-21.014 20.988 0 11.582 9.405 20.961 21.014 20.961h335.511c11.554 0 20.959-9.379 20.959-20.961-0.001-11.609-9.406-20.988-20.96-20.988zM738.528 430.614h-335.51c-11.609 0-21.014 9.379-21.014 20.96 0 11.583 9.405 20.964 21.014 20.964h335.511c11.554 0 20.959-9.382 20.959-20.964-0.001-11.581-9.406-20.96-20.96-20.96zM403.018 346.764h209.679c11.554 0 20.964-9.407 20.964-20.989 0-11.584-9.41-20.963-20.964-20.963H403.018c-11.609 0-21.014 9.379-21.014 20.963-0.001 11.582 9.404 20.989 21.014 20.989z" fill="#21B3E5" p-id="2088"></path><path d="M803.028 946.369c-11.504 0-20.964 9.407-20.964 20.989 0 5.216-4.199 9.461-9.409 9.461H160.61c-5.22 0-9.46-4.245-9.46-9.461V187.609c0-5.186 4.24-9.433 9.46-9.433 11.604 0 20.903-9.379 20.903-20.961 0-11.584-9.298-20.989-20.903-20.989-28.38 0-51.388 23.058-51.388 51.382v779.749c0 28.326 23.008 51.386 51.388 51.386h612.045c28.329 0 51.388-23.06 51.388-51.386 0-11.581-9.355-20.988-21.015-20.988z" fill="#21B3E5" p-id="2089"></path></svg>