<?xml version="1.0" standalone="no"?><!DOCTYPE svg PUBLIC "-//W3C//DTD SVG 1.1//EN" "http://www.w3.org/Graphics/SVG/1.1/DTD/svg11.dtd"><svg t="1567748809665" class="icon" viewBox="0 0 1024 1024" version="1.1" xmlns="http://www.w3.org/2000/svg" p-id="2925" xmlns:xlink="http://www.w3.org/1999/xlink" width="200" height="200"><defs><style type="text/css"></style></defs><path d="M896 208a16 16 0 0 1 16 16v672a16 16 0 0 1-16 16H128a16 16 0 0 1-16-16V224a16 16 0 0 1 16-16h768m0-48H128a64 64 0 0 0-64 64v672a64 64 0 0 0 64 64h768a64 64 0 0 0 64-64V224a64 64 0 0 0-64-64z" fill="" p-id="2926"></path><path d="M328 64A24 24 0 0 0 304 88v176a24 24 0 0 0 48 0v-176A24 24 0 0 0 328 64zM696 64A24 24 0 0 0 672 88v176a24 24 0 0 0 48 0v-176A24 24 0 0 0 696 64zM440 416h-240a24 24 0 0 0 0 48h240a24 24 0 0 0 0-48zM440 560h-240a24 24 0 0 0 0 48h240a24 24 0 0 0 0-48zM568 704h-368a24 24 0 0 0 0 48h368a24 24 0 0 0 0-48z" fill="" p-id="2927"></path><path d="M796.48 304H672a32 32 0 0 0-22.24 9.12A31.04 31.04 0 0 0 640 336v368a34.72 34.72 0 0 0 3.68 15.04l58.72 107.52 4 7.2a32 32 0 0 0 49.6 7.2 35.52 35.52 0 0 0 5.44-7.2l62.4-114.72a26.88 26.88 0 0 0 3.68-15.04V336a30.88 30.88 0 0 0-31.04-32z m0 398.88l-34.24 62.88-28.32 51.84-8.32-16L672 702.88v-39.04h125.28z m0-185.44v115.04H672V397.6h125.28z m0-150.88H672V336h125.12z" fill="#0070FF" p-id="2928"></path></svg>