<?xml version="1.0" standalone="no"?><!DOCTYPE svg PUBLIC "-//W3C//DTD SVG 1.1//EN" "http://www.w3.org/Graphics/SVG/1.1/DTD/svg11.dtd"><svg t="1567748283686" class="icon" viewBox="0 0 1024 1024" version="1.1" xmlns="http://www.w3.org/2000/svg" p-id="797" xmlns:xlink="http://www.w3.org/1999/xlink" width="200" height="200"><defs><style type="text/css"></style></defs><path d="M343.596 549.021c-74.624 0-135.308 60.706-135.308 135.331 0 74.623 60.685 135.35 135.308 135.35 74.625 0 135.391-60.727 135.391-135.35 0-74.625-60.766-135.331-135.391-135.331z m0 228.693c-51.454 0-93.321-41.887-93.321-93.362 0-51.481 41.867-93.345 93.321-93.345 51.5 0 93.404 41.863 93.404 93.345 0 51.475-41.904 93.362-93.404 93.362z" fill="#4B7BBE" p-id="798"></path><path d="M652.1 620.897l-69.785-9.143a248.38 248.38 0 0 0-18.534-44.753l42.889-55.827a20.912 20.912 0 0 0 0.082-25.462 330.05 330.05 0 0 0-64.374-64.393c-7.544-5.722-17.958-5.681-25.421 0.082l-55.846 42.889a246.83 246.83 0 0 0-44.775-18.574l-9.14-69.787c-1.193-9.371-8.573-16.77-17.922-18.063-31.117-4.324-59.864-4.365-91.026-0.041a20.99 20.99 0 0 0-17.958 18.063l-9.103 69.745c-15.536 4.715-30.588 10.925-44.939 18.615l-55.843-42.929c-7.462-5.763-17.878-5.782-25.422-0.104-24.027 18.164-46.251 40.41-64.375 64.355-5.74 7.544-5.658 17.959 0.083 25.462l42.888 55.805a246.444 246.444 0 0 0-18.656 44.957l-69.745 9.125c-9.349 1.208-16.771 8.569-18.041 17.937a331.652 331.652 0 0 0 0 91.008c1.271 9.366 8.692 16.729 18.041 17.937l69.745 9.124a246.444 246.444 0 0 0 18.656 44.957L80.69 857.687c-5.741 7.504-5.822 17.918-0.083 25.464 18.124 23.968 40.388 46.209 64.375 64.354 7.544 5.7 17.959 5.637 25.422-0.104l55.843-42.93c14.351 7.69 29.403 13.9 44.939 18.615l9.103 69.746a20.988 20.988 0 0 0 17.958 18.082c15.544 2.131 30.424 3.156 45.431 3.156 15.089 0 30.014-1.043 45.595-3.217 9.349-1.293 16.729-8.691 17.922-18.063l9.14-69.785a246.9 246.9 0 0 0 44.775-18.593l55.846 42.888c7.463 5.719 17.877 5.782 25.421 0.101 24.272-18.369 45.968-40.019 64.374-64.393a20.912 20.912 0 0 0-0.082-25.462L563.78 801.72a248.47 248.47 0 0 0 18.534-44.753l69.785-9.145c9.349-1.229 16.729-8.568 18.041-17.939 4.264-30.671 4.264-60.456 0-91.044-1.311-9.372-8.692-16.711-18.04-17.942z m-21.769 87.441l-67.326 8.815c-8.61 1.126-15.663 7.439-17.676 15.908a207.766 207.766 0 0 1-24.602 59.392c-4.592 7.421-4.056 16.873 1.23 23.762l41.412 53.854a286.125 286.125 0 0 1-33.905 33.909l-53.841-41.371c-6.887-5.268-16.318-5.781-23.78-1.249a205.985 205.985 0 0 1-59.455 24.684 20.91 20.91 0 0 0-15.863 17.672l-8.819 67.346c-16.11 1.375-31.818 1.354-47.929 0.021l-8.819-67.307c-1.104-8.63-7.462-15.664-15.908-17.69-20.994-5.025-41.002-13.326-59.536-24.666-7.381-4.51-16.812-4.036-23.782 1.253l-53.835 41.391a295.216 295.216 0 0 1-33.868-33.847l41.372-53.836c5.29-6.889 5.822-16.341 1.23-23.764-11.316-18.532-19.681-38.583-24.684-59.595a21.037 21.037 0 0 0-17.713-15.909l-67.285-8.797a292.066 292.066 0 0 1 0-47.909l67.285-8.796a21.037 21.037 0 0 0 17.713-15.91c5.003-21.011 13.368-41.062 24.684-59.595 4.592-7.422 4.06-16.875-1.23-23.763l-41.372-53.837a295.287 295.287 0 0 1 33.868-33.846l53.835 41.391c6.97 5.312 16.401 5.822 23.782 1.252 18.533-11.339 38.542-19.64 59.536-24.665 8.446-2.028 14.804-9.062 15.908-17.691l8.819-67.308c16.11-1.353 31.773-1.372 47.929 0.022l8.819 67.345a20.91 20.91 0 0 0 15.863 17.672 205.98 205.98 0 0 1 59.455 24.684c7.462 4.551 16.893 4.082 23.78-1.249l53.841-41.394c12.219 10.355 23.573 21.69 33.905 33.932l-41.412 53.854c-5.286 6.889-5.822 16.342-1.23 23.764a207.747 207.747 0 0 1 24.602 59.39c2.013 8.469 9.065 14.783 17.676 15.909l67.326 8.816a275.287 275.287 0 0 1 0 47.956zM810.943 161.568c-47.727-19.498-104.885 4.611-124.32 52.073-19.844 48.629 3.489 104.37 52.118 124.279 11.519 4.715 23.655 7.111 36.038 7.111 38.87 0 73.477-23.248 88.237-59.207 9.595-23.536 9.513-49.427-0.327-72.903-9.841-23.47-28.21-41.698-51.746-51.353z m13.203 108.348c-10.861 26.551-42.725 40.06-69.495 29.134-27.188-11.134-40.265-42.314-29.157-69.5 8.245-20.113 27.636-33.111 49.367-33.111a52.82 52.82 0 0 1 20.173 4c13.166 5.39 23.454 15.581 28.948 28.702 5.495 13.121 5.539 27.613 0.164 40.775z" fill="#4B7BBE" p-id="799"></path><path d="M1001.113 286.626l-40.838-23.331c0.655-9.513 0.617-19.047-0.164-28.579l40.719-23.681c8.155-4.756 12.174-14.369 9.714-23.513-5.74-21.794-14.515-42.683-25.995-62.119-4.794-8.16-14.433-11.913-23.618-9.554l-45.387 12.424a182.753 182.753 0 0 0-20.3-20.173L907.3 62.588c2.378-9.143-1.596-18.779-9.759-23.536-19.801-11.48-40.183-19.826-62.279-25.503-9.229-2.419-18.779 1.7-23.453 9.923L788.475 64.33a183.909 183.909 0 0 0-28.702 0.104l-23.654-40.697c-4.72-8.178-14.396-12.155-23.499-9.736-21.485 5.677-42.971 14.657-62.078 25.973-8.155 4.82-12.055 14.497-9.594 23.617l12.383 45.413c-7.217 6.251-14.022 13.08-20.211 20.396l-45.476-12.032c-9.185-2.501-18.778 1.558-23.534 9.758a246.352 246.352 0 0 0-25.505 62.242c-2.378 9.162 1.723 18.779 9.923 23.453l40.883 23.331c-0.7 9.572-0.656 19.167 0.119 28.742l-40.674 23.678c-8.2 4.756-12.137 14.392-9.759 23.517 5.741 21.485 14.725 42.948 26.077 62.078 4.839 8.137 14.478 11.991 23.58 9.554l45.432-12.424a181.847 181.847 0 0 0 20.374 20.192l-12.055 45.471c-2.416 9.144 1.559 18.802 9.759 23.536 20.091 11.626 39.854 19.722 62.324 25.484 1.723 0.451 3.489 0.656 5.211 0.656a21.035 21.035 0 0 0 18.242-10.579l23.335-40.902c9.512 0.697 19.144 0.638 28.574-0.142l23.699 40.694c4.756 8.182 14.396 12.178 23.535 9.739a245.847 245.847 0 0 0 62.078-26.037c8.119-4.819 12.056-14.474 9.557-23.599l-12.426-45.431a188.489 188.489 0 0 0 20.136-20.274l45.468 12.014c9.064 2.337 18.778-1.599 23.535-9.74 11.48-19.782 19.845-40.16 25.503-62.324 2.342-9.159-1.722-18.754-9.922-23.429z m-44.446 50.657l-42.807-11.294c-8.321-2.173-17.259 0.983-22.344 8.014-8.736 12.137-19.315 22.779-31.452 31.677-6.97 5.125-10.086 14.063-7.791 22.447l11.645 42.683a201.283 201.283 0 0 1-22.387 9.39l-22.224-38.233c-4.383-7.526-13.038-11.626-21.485-10.169-14.597 2.379-29.603 2.561-44.692 0.224-8.647-1.208-17.057 2.811-21.403 10.333l-21.933 38.442a194.511 194.511 0 0 1-22.432-9.166l11.316-42.766a21.022 21.022 0 0 0-8.036-22.406c-12.137-8.714-22.798-19.312-31.736-31.471-5.166-7.012-14.023-10.046-22.469-7.832l-42.681 11.667c-3.57-7.239-6.687-14.742-9.394-22.346l38.215-22.246c7.544-4.365 11.563-12.934 10.169-21.504-2.378-14.883-2.461-29.931-0.164-44.756 1.312-8.588-2.789-17.116-10.333-21.422l-38.416-21.918c2.58-7.645 5.695-15.129 9.185-22.405l42.725 11.294c8.484 2.214 17.341-0.962 22.425-8.037 8.774-12.178 19.354-22.857 31.49-31.713 7.015-5.148 10.168-14.086 7.872-22.492l-11.682-42.661a212.878 212.878 0 0 1 22.343-9.371L730.46 97.5c4.346 7.485 12.666 11.44 21.521 10.168a142.04 142.04 0 0 1 44.693-0.183c8.528 1.313 17.101-2.788 21.402-10.333l21.941-38.419c7.663 2.602 15.126 5.636 22.424 9.185l-11.316 42.784a21.044 21.044 0 0 0 7.999 22.387 142.988 142.988 0 0 1 31.691 31.471c5.166 7.03 14.104 10.106 22.469 7.851l42.644-11.664c3.607 7.257 6.725 14.739 9.394 22.365l-38.26 22.265c-7.5 4.369-11.563 12.916-10.169 21.508 2.378 14.843 2.461 29.85 0.209 44.588-1.356 8.592 2.788 17.121 10.333 21.426l38.415 21.955c-2.578 7.709-5.658 15.112-9.183 22.429z" fill="#4B7BBE" p-id="800"></path></svg>